<?xml version="1.0" encoding="UTF-8" standalone="no"?>
<svg
   xmlns:dc="http://purl.org/dc/elements/1.1/"
   xmlns:cc="http://creativecommons.org/ns#"
   xmlns:rdf="http://www.w3.org/1999/02/22-rdf-syntax-ns#"
   xmlns:svg="http://www.w3.org/2000/svg"
   xmlns="http://www.w3.org/2000/svg"
   version="1.1"
   id="svg4166"
   viewBox="0 0 932.54796 932.54796"
   height="932.54797"
   width="932.54797">
  <defs
     id="defs4168" />
  <metadata
     id="metadata4171">
    <rdf:RDF>
      <cc:Work
         rdf:about="">
        <dc:format>image/svg+xml</dc:format>
        <dc:type
           rdf:resource="http://purl.org/dc/dcmitype/StillImage" />
        <dc:title></dc:title>
      </cc:Work>
    </rdf:RDF>
  </metadata>
  <g
     transform="translate(-33.726,-86.088289)"
     id="layer1">
    <path
       id="rect31335"
       d="M 385,201.08829 500,86.088289 615,201.08829 l 0,140 -115,-115 -115,115 z"
       style="opacity:1;fill:#ffffff;fill-opacity:1;stroke:none;stroke-width:38;stroke-linecap:round;stroke-linejoin:miter;stroke-miterlimit:4;stroke-dasharray:none;stroke-opacity:1" />
    <path
       id="rect31335-1"
       d="m 228.726,747.36229 -195,-195 115,-115 140,0 -115,115 125,125 z"
       style="opacity:1;fill:#ffffff;fill-opacity:1;stroke:none;stroke-width:38;stroke-linecap:round;stroke-linejoin:miter;stroke-miterlimit:4;stroke-dasharray:none;stroke-opacity:1" />
    <path
       style="opacity:1;fill:#ffffff;fill-opacity:1;stroke:none;stroke-width:38;stroke-linecap:round;stroke-linejoin:miter;stroke-miterlimit:4;stroke-dasharray:none;stroke-opacity:1"
       d="m 771.274,744.36229 195,-192 -115,-115 -140,0 115,115 -125,125 z"
       id="path31364" />
    <path
       id="rect31335-5"
       d="M 705,813.63629 500,1018.6363 295,813.63629 l 70,-70 135,135 135,-135 z"
       style="opacity:1;fill:#ffffff;fill-opacity:1;stroke:none;stroke-width:38;stroke-linecap:round;stroke-linejoin:miter;stroke-miterlimit:4;stroke-dasharray:none;stroke-opacity:1" />
    <path
       id="rect31405"
       d="m 76.863,129.22529 260,140 0,120 -120,0 z"
       style="opacity:1;fill:#ffffff;fill-opacity:1;stroke:none;stroke-width:38;stroke-linecap:round;stroke-linejoin:miter;stroke-miterlimit:4;stroke-dasharray:none;stroke-opacity:1" />
    <path
       id="rect31405-3"
       d="m 923.137,129.22529 -260,140 0,120 120,0 z"
       style="opacity:1;fill:#ffffff;fill-opacity:1;stroke:none;stroke-width:38;stroke-linecap:round;stroke-linejoin:miter;stroke-miterlimit:4;stroke-dasharray:none;stroke-opacity:1" />
  </g>
</svg>
