<?xml version="1.0" encoding="UTF-8" standalone="no"?>
<svg
   xmlns:dc="http://purl.org/dc/elements/1.1/"
   xmlns:cc="http://creativecommons.org/ns#"
   xmlns:rdf="http://www.w3.org/1999/02/22-rdf-syntax-ns#"
   xmlns:svg="http://www.w3.org/2000/svg"
   xmlns="http://www.w3.org/2000/svg"
   shape-rendering="crispEdges"
   version="1.1"
   id="svg4166"
   viewBox="0 0 999.9999880656118 999.9999880410413"
   height="1000"
   width="1000">
  <defs
     id="defs4168" />
  <metadata
     id="metadata4171">
    <rdf:RDF>
      <cc:Work
         rdf:about="">
        <dc:format>image/svg+xml</dc:format>
        <dc:type
           rdf:resource="http://purl.org/dc/dcmitype/StillImage" />
        <dc:title></dc:title>
      </cc:Work>
    </rdf:RDF>
  </metadata>
  <g
     transform="translate(0,-52.36228930856214)"
     id="layer1">
    <path
       id="path4148-2-4"
       transform="translate(0,52.362289)"
       d="M 500 11.113281 A 275 275 0 0 0 241.24609 193.81836 L 301.20703 264.77148 A 200 200 0 0 1 500 86.113281 A 200 200 0 0 1 698.64648 264.94336 L 758.71094 193.87109 A 275 275 0 0 0 500 11.113281 z M 894.71875 428.9707 L 802.91406 445.49219 A 200 200 0 0 1 885.23047 606.94336 A 200 200 0 0 1 685.23047 806.94336 A 200 200 0 0 1 604.25781 789.60352 L 635.72852 877.02148 A 275 275 0 0 0 685.23047 881.94336 A 275 275 0 0 0 960.23047 606.94336 A 275 275 0 0 0 894.71875 428.9707 z M 105.77344 429.06055 A 275 275 0 0 0 39.769531 606.94336 A 275 275 0 0 0 314.76953 881.94336 A 275 275 0 0 0 364.2207 877.16602 L 395.7793 789.50195 A 200 200 0 0 1 314.76953 806.94336 A 200 200 0 0 1 114.76953 606.94336 A 200 200 0 0 1 197.12891 445.5 L 105.77344 429.06055 z "
       style="color:#000000;clip-rule:nonzero;display:inline;overflow:visible;visibility:visible;opacity:1;isolation:auto;mix-blend-mode:normal;color-interpolation:sRGB;color-interpolation-filters:linearRGB;solid-color:#000000;solid-opacity:1;fill:#ffffff;fill-opacity:1;fill-rule:nonzero;stroke:none;stroke-width:5;stroke-linecap:round;stroke-linejoin:miter;stroke-miterlimit:4;stroke-dasharray:none;stroke-dashoffset:0;stroke-opacity:0.39215686;color-rendering:auto;image-rendering:auto;shape-rendering:auto;text-rendering:auto;enable-background:accumulate" />
    <path
       d="M 671.103,453.57529 872.74624,435.1361 903.80453,319.225 787.89343,288.16672 Z m -342.20647,0 L 127.25329,435.1361 96.195,319.225 212.1061,288.16672 Z M 500,749.93571 584.85281,933.78348 500,1018.6363 415.14719,933.78348 Z"
       style="opacity:1;fill:#ffffff;fill-opacity:1;stroke:none;stroke-width:38;stroke-linecap:round;stroke-linejoin:miter;stroke-miterlimit:4;stroke-dasharray:none;stroke-opacity:1"
       id="rect31405-9-3-2" />
  </g>
</svg>
