<?xml version="1.0" encoding="UTF-8" standalone="no"?>
<svg
   xmlns:dc="http://purl.org/dc/elements/1.1/"
   xmlns:cc="http://creativecommons.org/ns#"
   xmlns:rdf="http://www.w3.org/1999/02/22-rdf-syntax-ns#"
   xmlns:svg="http://www.w3.org/2000/svg"
   xmlns="http://www.w3.org/2000/svg"
   version="1.1"
   id="svg4166"
   viewBox="0 0 629.99999 629.99999"
   height="630"
   width="630">
  <defs
     id="defs4168" />
  <metadata
     id="metadata4171">
    <rdf:RDF>
      <cc:Work
         rdf:about="">
        <dc:format>image/svg+xml</dc:format>
        <dc:type
           rdf:resource="http://purl.org/dc/dcmitype/StillImage" />
        <dc:title></dc:title>
      </cc:Work>
    </rdf:RDF>
  </metadata>
  <g
     transform="translate(-184.99904,-237.36136)"
     id="layer1">
    <path
       id="path4168"
       transform="translate(57.805677,110.168)"
       d="m 442.19336,127.19336 a 315,315 0 0 0 -194.58594,67.38086 l 60.85156,60.85156 a 230,230 0 0 1 133.73438,-43.23242 230,230 0 0 1 133.80469,43.16602 l 60.7832,-60.78516 A 315,315 0 0 0 442.19336,127.19336 Z M 194.77539,247.80859 a 315,315 0 0 0 -67.58203,194.38477 315,315 0 0 0 67.58203,194.38672 l 60.65039,-60.65039 A 230,230 0 0 1 212.19336,442.19336 230,230 0 0 1 255.35742,308.39258 l -60.58203,-60.58399 z m 494.83789,0 -60.65039,60.65039 a 230,230 0 0 1 43.23047,133.73438 230,230 0 0 1 -43.16406,133.80469 l 60.58398,60.58203 A 315,315 0 0 0 757.19336,442.19336 315,315 0 0 0 689.61328,247.80859 Z M 575.92969,628.96289 A 230,230 0 0 1 442.19336,672.19336 230,230 0 0 1 308.39062,629.03125 l -60.7832,60.7832 a 315,315 0 0 0 194.58594,67.37891 315,315 0 0 0 194.58789,-67.37891 l -60.85156,-60.85156 z"
       style="color:#000000;clip-rule:nonzero;display:inline;overflow:visible;visibility:visible;opacity:1;isolation:auto;mix-blend-mode:normal;color-interpolation:sRGB;color-interpolation-filters:linearRGB;solid-color:#000000;solid-opacity:1;fill:#ffffff;fill-opacity:1;fill-rule:nonzero;stroke:none;stroke-width:5;stroke-linecap:round;stroke-linejoin:miter;stroke-miterlimit:4;stroke-dasharray:none;stroke-dashoffset:0;stroke-opacity:0.39215686;color-rendering:auto;image-rendering:auto;shape-rendering:auto;text-rendering:auto;enable-background:accumulate" />
    <circle
       r="165"
       cy="552.3623"
       cx="500"
       id="path4170-7"
       style="color:#000000;clip-rule:nonzero;display:inline;overflow:visible;visibility:visible;opacity:1;isolation:auto;mix-blend-mode:normal;color-interpolation:sRGB;color-interpolation-filters:linearRGB;solid-color:#000000;solid-opacity:1;fill:#ffffff;fill-opacity:1;fill-rule:nonzero;stroke:none;stroke-width:5;stroke-linecap:round;stroke-linejoin:miter;stroke-miterlimit:4;stroke-dasharray:none;stroke-dashoffset:0;stroke-opacity:0.39215686;color-rendering:auto;image-rendering:auto;shape-rendering:auto;text-rendering:auto;enable-background:accumulate" />
  </g>
</svg>
