<?xml version="1.0" encoding="UTF-8" standalone="no"?>
<!-- Created with Inkscape (http://www.inkscape.org/) -->

<svg
   xmlns:dc="http://purl.org/dc/elements/1.1/"
   xmlns:cc="http://creativecommons.org/ns#"
   xmlns:rdf="http://www.w3.org/1999/02/22-rdf-syntax-ns#"
   xmlns:svg="http://www.w3.org/2000/svg"
   xmlns="http://www.w3.org/2000/svg"
   xmlns:sodipodi="http://sodipodi.sourceforge.net/DTD/sodipodi-0.dtd"
   xmlns:inkscape="http://www.inkscape.org/namespaces/inkscape"
   width="910"
   height="910"
   viewBox="0 0 909.99999 909.99999"
   id="svg4166"
   version="1.1"
   inkscape:version="0.91 r"
   sodipodi:docname="player.svg"
   inkscape:export-filename="D:\Samuel Daten\Ico\Eigene Ico\Inkscape\RE\RE-priv_player.png"
   inkscape:export-xdpi="90"
   inkscape:export-ydpi="90">
  <defs
     id="defs4168" />
  <sodipodi:namedview
     id="base"
     pagecolor="#ff0000"
     bordercolor="#666666"
     borderopacity="1.0"
     inkscape:pageopacity="0"
     inkscape:pageshadow="2"
     inkscape:zoom="0.35"
     inkscape:cx="1293.063"
     inkscape:cy="476.25015"
     inkscape:document-units="px"
     inkscape:current-layer="layer1"
     showgrid="false"
     units="px"
     showguides="true"
     inkscape:window-width="1920"
     inkscape:window-height="1031"
     inkscape:window-x="1920"
     inkscape:window-y="25"
     inkscape:window-maximized="1"
     fit-margin-top="0"
     fit-margin-left="0"
     fit-margin-right="0"
     fit-margin-bottom="0" />
  <metadata
     id="metadata4171">
    <rdf:RDF>
      <cc:Work
         rdf:about="">
        <dc:format>image/svg+xml</dc:format>
        <dc:type
           rdf:resource="http://purl.org/dc/dcmitype/StillImage" />
        <dc:title></dc:title>
      </cc:Work>
    </rdf:RDF>
  </metadata>
  <g
     inkscape:label="Ebene 1"
     inkscape:groupmode="layer"
     id="layer1"
     transform="translate(-45,-97.362289)">
    <path
       style="opacity:1;fill:#ffffff;fill-opacity:1;stroke:none;stroke-width:38;stroke-linecap:round;stroke-linejoin:miter;stroke-miterlimit:4;stroke-dasharray:none;stroke-opacity:1"
       d="m 316.863,735.49929 -240,108 0,132 132,0 z"
       id="rect31405-2"
       inkscape:connector-curvature="0"
       sodipodi:nodetypes="ccccc" />
    <path
       style="color:#000000;clip-rule:nonzero;display:inline;overflow:visible;visibility:visible;opacity:1;isolation:auto;mix-blend-mode:normal;color-interpolation:sRGB;color-interpolation-filters:linearRGB;solid-color:#000000;solid-opacity:1;fill:#ffffff;fill-opacity:1;fill-rule:nonzero;stroke:none;stroke-width:5;stroke-linecap:round;stroke-linejoin:miter;stroke-miterlimit:4;stroke-dasharray:none;stroke-dashoffset:0;stroke-opacity:0.39215686;color-rendering:auto;image-rendering:auto;shape-rendering:auto;text-rendering:auto;enable-background:accumulate"
       d="m 342.5,45 a 297.5,297.5 0 0 0 -179.17383,60.34375 l 53.69336,53.69336 A 222.5,222.5 0 0 1 342.5,120 222.5,222.5 0 0 1 565,342.5 222.5,222.5 0 0 1 526.12695,468.14453 l 5.89258,5.89258 A 222.5,222.5 0 0 1 657.5,435 222.5,222.5 0 0 1 880,657.5 222.5,222.5 0 0 1 841.12695,783.14453 l 53.45703,53.45703 A 297.5,297.5 0 0 0 955,657.5 297.5,297.5 0 0 0 657.5,360 297.5,297.5 0 0 0 639.0918,360.65234 297.5,297.5 0 0 0 640,342.5 297.5,297.5 0 0 0 342.5,45 Z M 105.41602,163.39844 A 297.5,297.5 0 0 0 45,342.5 297.5,297.5 0 0 0 342.5,640 297.5,297.5 0 0 0 360.9082,639.34766 297.5,297.5 0 0 0 360,657.5 297.5,297.5 0 0 0 657.5,955 297.5,297.5 0 0 0 836.67383,894.65625 L 782.98047,840.96289 A 222.5,222.5 0 0 1 657.5,880 222.5,222.5 0 0 1 435,657.5 222.5,222.5 0 0 1 473.87305,531.85547 l -5.89258,-5.89258 A 222.5,222.5 0 0 1 342.5,565 222.5,222.5 0 0 1 120,342.5 222.5,222.5 0 0 1 158.87305,216.85547 l -53.45703,-53.45703 z"
       transform="translate(0,52.362289)"
       id="path4152-2-1-0"
       inkscape:connector-curvature="0" />
    <path
       style="opacity:1;fill:#ffffff;fill-opacity:1;stroke:none;stroke-width:38;stroke-linecap:round;stroke-linejoin:miter;stroke-miterlimit:4;stroke-dasharray:none;stroke-opacity:1"
       d="m 683.137,369.22529 240,-108 0,-132 -132,0 z"
       id="rect31405-2-1"
       inkscape:connector-curvature="0"
       sodipodi:nodetypes="ccccc" />
    <circle
       style="color:#000000;clip-rule:nonzero;display:inline;overflow:visible;visibility:visible;opacity:1;isolation:auto;mix-blend-mode:normal;color-interpolation:sRGB;color-interpolation-filters:linearRGB;solid-color:#000000;solid-opacity:1;fill:#ffffff;fill-opacity:1;fill-rule:nonzero;stroke:none;stroke-width:5;stroke-linecap:round;stroke-linejoin:miter;stroke-miterlimit:4;stroke-dasharray:none;stroke-dashoffset:0;stroke-opacity:0.39215686;color-rendering:auto;image-rendering:auto;shape-rendering:auto;text-rendering:auto;enable-background:accumulate"
       id="path4152-2-2"
       cx="657.5"
       cy="709.8623"
       r="157.5" />
    <circle
       style="color:#000000;clip-rule:nonzero;display:inline;overflow:visible;visibility:visible;opacity:1;isolation:auto;mix-blend-mode:normal;color-interpolation:sRGB;color-interpolation-filters:linearRGB;solid-color:#000000;solid-opacity:1;fill:#ffffff;fill-opacity:1;fill-rule:nonzero;stroke:none;stroke-width:5;stroke-linecap:round;stroke-linejoin:miter;stroke-miterlimit:4;stroke-dasharray:none;stroke-dashoffset:0;stroke-opacity:0.39215686;color-rendering:auto;image-rendering:auto;shape-rendering:auto;text-rendering:auto;enable-background:accumulate"
       id="path4152-2-2-1"
       cx="342.5"
       cy="394.86227"
       r="157.5" />
  </g>
</svg>
