<?xml version="1.0" encoding="UTF-8" standalone="no"?>
<!-- Created with Inkscape (http://www.inkscape.org/) -->

<svg
   xmlns:dc="http://purl.org/dc/elements/1.1/"
   xmlns:cc="http://creativecommons.org/ns#"
   xmlns:rdf="http://www.w3.org/1999/02/22-rdf-syntax-ns#"
   xmlns:svg="http://www.w3.org/2000/svg"
   xmlns="http://www.w3.org/2000/svg"
   xmlns:sodipodi="http://sodipodi.sourceforge.net/DTD/sodipodi-0.dtd"
   xmlns:inkscape="http://www.inkscape.org/namespaces/inkscape"
   width="920.46094"
   height="955.16071"
   viewBox="0 0 920.46093 955.1607"
   id="svg4166"
   version="1.1"
   inkscape:version="0.91 r"
   sodipodi:docname="supporter.svg"
   inkscape:export-filename="D:\Samuel Daten\Ico\Eigene Ico\Inkscape\RE\RE-priv_supporter-a.png"
   inkscape:export-xdpi="90"
   inkscape:export-ydpi="90">
  <defs
     id="defs4168" />
  <sodipodi:namedview
     id="base"
     pagecolor="#ff0000"
     bordercolor="#666666"
     borderopacity="1.0"
     inkscape:pageopacity="0"
     inkscape:pageshadow="2"
     inkscape:zoom="0.7"
     inkscape:cx="307.12016"
     inkscape:cy="444.82871"
     inkscape:document-units="px"
     inkscape:current-layer="layer1"
     showgrid="false"
     units="px"
     showguides="true"
     fit-margin-top="0"
     fit-margin-left="0"
     fit-margin-right="0"
     fit-margin-bottom="0"
     inkscape:window-width="1920"
     inkscape:window-height="1031"
     inkscape:window-x="1920"
     inkscape:window-y="25"
     inkscape:window-maximized="1" />
  <metadata
     id="metadata4171">
    <rdf:RDF>
      <cc:Work
         rdf:about="">
        <dc:format>image/svg+xml</dc:format>
        <dc:type
           rdf:resource="http://purl.org/dc/dcmitype/StillImage" />
        <dc:title></dc:title>
      </cc:Work>
    </rdf:RDF>
  </metadata>
  <g
     inkscape:label="Ebene 1"
     inkscape:groupmode="layer"
     id="layer1"
     transform="translate(-39.769531,-63.47557)">
    <path
       style="color:#000000;clip-rule:nonzero;display:inline;overflow:visible;visibility:visible;opacity:1;isolation:auto;mix-blend-mode:normal;color-interpolation:sRGB;color-interpolation-filters:linearRGB;solid-color:#000000;solid-opacity:1;fill:#ffffff;fill-opacity:1;fill-rule:nonzero;stroke:none;stroke-width:5;stroke-linecap:round;stroke-linejoin:miter;stroke-miterlimit:4;stroke-dasharray:none;stroke-dashoffset:0;stroke-opacity:0.39215686;color-rendering:auto;image-rendering:auto;shape-rendering:auto;text-rendering:auto;enable-background:accumulate"
       d="M 460.23047 0 A 275 275 0 0 0 201.51953 182.75781 L 261.4375 253.6582 A 200 200 0 0 1 460.23047 75 A 200 200 0 0 1 658.87695 253.83008 L 718.98438 182.70508 A 275 275 0 0 0 460.23047 0 z M 65.4375 417.84375 A 275 275 0 0 0 0 595.83008 A 275 275 0 0 0 275 870.83008 A 275 275 0 0 0 324.38477 866.23438 L 355.99805 778.42188 A 200 200 0 0 1 275 795.83008 A 200 200 0 0 1 75 595.83008 A 200 200 0 0 1 157.35938 434.38477 L 65.4375 417.84375 z M 854.73633 417.89648 L 763.14648 434.37695 A 200 200 0 0 1 845.46094 595.83008 A 200 200 0 0 1 645.46094 795.83008 A 200 200 0 0 1 564.51172 778.56055 L 596.03906 866.13477 A 275 275 0 0 0 645.46094 870.83008 A 275 275 0 0 0 920.46094 595.83008 A 275 275 0 0 0 854.73633 417.89648 z "
       transform="translate(39.769531,63.47557)"
       id="path4148-2-4" />
    <path
       id="rect31405-9-3-2"
       style="opacity:1;fill:#ffffff;fill-opacity:1;stroke:none;stroke-width:38;stroke-linecap:round;stroke-linejoin:miter;stroke-miterlimit:4;stroke-dasharray:none;stroke-opacity:1"
       d="M 671.103,453.57529 872.74624,435.1361 903.80453,319.225 787.89343,288.16672 Z m -342.20647,0 L 127.25329,435.1361 96.195,319.225 212.1061,288.16672 Z M 500,749.93571 584.85281,933.78348 500,1018.6363 415.14719,933.78348 Z"
       inkscape:connector-curvature="0" />
    <path
       id="path4148"
       style="color:#000000;clip-rule:nonzero;display:inline;overflow:visible;visibility:visible;opacity:1;isolation:auto;mix-blend-mode:normal;color-interpolation:sRGB;color-interpolation-filters:linearRGB;solid-color:#000000;solid-opacity:1;fill:#ffffff;fill-opacity:1;fill-rule:nonzero;stroke:none;stroke-width:5;stroke-linecap:round;stroke-linejoin:miter;stroke-miterlimit:4;stroke-dasharray:none;stroke-dashoffset:0;stroke-opacity:0.39215686;color-rendering:auto;image-rendering:auto;shape-rendering:auto;text-rendering:auto;enable-background:accumulate"
       d="m 830.23102,659.3053 a 145,145 0 0 1 -145,145 145,145 0 0 1 -145,-145 145,145 0 0 1 145,-145 145,145 0 0 1 145,145 z M 645,338.47528 a 145,145 0 0 1 -145,145 145,145 0 0 1 -145,-145 145,145 0 0 1 145,-145 145,145 0 0 1 145,145 z M 459.76901,659.3053 a 145,145 0 0 1 -145,145 145,145 0 0 1 -145,-145 145,145 0 0 1 145,-145 145,145 0 0 1 145,145 z"
       inkscape:connector-curvature="0" />
  </g>
</svg>
